<svg class="css-ze2te4 css-qd6ojx" viewBox="0 0 100 114.27980701637976"><g transform="translate(-1.4268112969977655, -1.4296725017894676) scale(0.21007531951572664)" stroke="#bcdea5" fill="#bcdea5"><g xmlns="http://www.w3.org/2000/svg"><rect x="76.5" y="76.5" transform="matrix(0.7071 -0.7071 0.7071 0.7071 -101.3944 244.8154)" class="st0" width="336.6" height="336.6" style="fill: none; stroke: {{COLOR}}; stroke-width: 13.5999; stroke-linecap: round; stroke-linejoin: round; stroke-miterlimit: 67.9997;"></rect><path d="M244.8,410.7L78.9,244.8L244.8,78.9l165.9,165.9L244.8,410.7z M151.1,244.8l93.7,93.7l93.7-93.7l-93.7-93.8L151.1,244.8z"></path><path class="st1" d="M244.8,410.7L78.9,244.8L244.8,78.9l165.9,165.9L244.8,410.7z M151.1,244.8l93.7,93.7l93.7-93.7l-93.7-93.8   L151.1,244.8z" style="fill: none; stroke: {{COLOR}}; stroke-width: 13.6001; stroke-linecap: round; stroke-linejoin: round; stroke-miterlimit: 68.0004;"></path><rect x="229.5" y="229.5" transform="matrix(0.7072 -0.707 0.707 0.7072 -101.4169 244.7354)" width="30.6" height="30.6"></rect><rect x="229.5" y="229.5" transform="matrix(0.7072 -0.707 0.707 0.7072 -101.4169 244.7354)" class="st0" width="30.6" height="30.6" style="fill: none; stroke: {{COLOR}}; stroke-width: 13.5999; stroke-linecap: round; stroke-linejoin: round; stroke-miterlimit: 67.9997;"></rect><polygon points="244.8,482.8 448.8,278.8 482.8,312.8 244.8,550.8 6.8,312.8 40.8,278.8  "></polygon><polygon class="st1" points="244.8,482.8 448.8,278.8 482.8,312.8 244.8,550.8 6.8,312.8 40.8,278.8  " style="fill: none; stroke: {{COLOR}}; stroke-width: 13.6001; stroke-linecap: round; stroke-linejoin: round; stroke-miterlimit: 68.0004;"></polygon></g></g></svg>