<svg width="396" height="128.37947620929705" viewBox="0 -7.29 375 121.57147368304643" class="looka-1j8o68f"><defs id="SvgjsDefs2549"></defs><g id="SvgjsG2550" featurekey="nYIUkx-0" transform="matrix(0.21007531951572664,0,0,0.21007531951572664,-1.4268112969977655,-8.721339168456135)" fill="#bcdea5"><g xmlns="http://www.w3.org/2000/svg"><rect x="76.5" y="76.5" transform="matrix(0.7071 -0.7071 0.7071 0.7071 -101.3944 244.8154)" class="st0" width="336.6" height="336.6" style="fill: none; stroke: #bcdea5; stroke-width: 13.5999; stroke-linecap: round; stroke-linejoin: round; stroke-miterlimit: 67.9997;"></rect><path d="M244.8,410.7L78.9,244.8L244.8,78.9l165.9,165.9L244.8,410.7z M151.1,244.8l93.7,93.7l93.7-93.7l-93.7-93.8L151.1,244.8z"></path><path class="st1" d="M244.8,410.7L78.9,244.8L244.8,78.9l165.9,165.9L244.8,410.7z M151.1,244.8l93.7,93.7l93.7-93.7l-93.7-93.8   L151.1,244.8z" style="fill: none; stroke: #bcdea5; stroke-width: 13.6001; stroke-linecap: round; stroke-linejoin: round; stroke-miterlimit: 68.0004;"></path><rect x="229.5" y="229.5" transform="matrix(0.7072 -0.707 0.707 0.7072 -101.4169 244.7354)" width="30.6" height="30.6"></rect><rect x="229.5" y="229.5" transform="matrix(0.7072 -0.707 0.707 0.7072 -101.4169 244.7354)" class="st0" width="30.6" height="30.6" style="fill: none; stroke: #bcdea5; stroke-width: 13.5999; stroke-linecap: round; stroke-linejoin: round; stroke-miterlimit: 67.9997;"></rect><polygon points="244.8,482.8 448.8,278.8 482.8,312.8 244.8,550.8 6.8,312.8 40.8,278.8  "></polygon><polygon class="st1" points="244.8,482.8 448.8,278.8 482.8,312.8 244.8,550.8 6.8,312.8 40.8,278.8  " style="fill: none; stroke: #bcdea5; stroke-width: 13.6001; stroke-linecap: round; stroke-linejoin: round; stroke-miterlimit: 68.0004;"></polygon></g></g><g id="SvgjsG2551" featurekey="PXhRQw-0" transform="matrix(2.8801844836916852,0,0,2.8801844836916852,123.04147521717846,12.677419425722784)" fill="#111111"><path d="M5.14 20.22 l-0.02 0 c-0.58 0 -1.18 -0.14 -1.74 -0.4 c-0.52 -0.22 -1 -0.58 -1.44 -1.04 c-0.7 -0.76 -1.12 -1.76 -1.22 -2.8 c-0.02 -0.18 -0.04 -0.36 -0.04 -0.56 c0 -0.4 0.06 -0.82 0.16 -1.24 c0.18 -0.8 0.56 -1.54 1.1 -2.1 c0.4 -0.44 0.86 -0.78 1.44 -1.06 c0.54 -0.26 1.14 -0.38 1.76 -0.38 c0.64 0 1.22 0.12 1.76 0.38 c0.6 0.28 1.08 0.64 1.44 1.06 c0.52 0.56 0.92 1.28 1.12 2.1 c0.1 0.38 0.14 0.78 0.14 1.24 l0 0.46 l-6.72 0 l0.02 0.14 c0.26 1.24 1.2 2.14 2.24 2.14 l0.02 0 c0.58 -0.04 1.22 -0.4 1.6 -0.72 l0.22 -0.18 l1.66 1.44 l-0.3 0.26 c-0.22 0.2 -0.5 0.44 -0.8 0.6 l-0.02 0 c-0.72 0.42 -1.5 0.64 -2.38 0.66 z M5.14 12.719999999999999 c-0.78 0 -1.56 0.54 -1.98 1.38 l-0.08 0.16 l4.14 0 l-0.08 -0.16 c-0.46 -0.86 -1.22 -1.38 -2 -1.38 z M21.119999999999997 20 l-3.18 0 l-2.46 -2.96 l-2.44 2.96 l-3.2 0 l4.1 -4.82 l-3.7 -4.34 l3.2 0 l2.04 2.46 l2.04 -2.46 l3.18 0 l-3.66 4.34 z M26.419999999999998 20.18 c-1.26 0 -2.46 -0.48 -3.38 -1.38 c-0.9 -0.92 -1.4 -2.12 -1.4 -3.38 s0.5 -2.46 1.4 -3.38 c0.9 -0.9 2.1 -1.38 3.38 -1.38 c0.84 0 1.6 0.3 2.26 0.9 l0.1 0.08 l0 -0.8 l2.42 0 l0 9.16 l-2.42 0 l0 -0.72 l-0.1 0.1 c-0.72 0.7 -1.54 0.8 -2.26 0.8 z M26.419999999999998 13 c-1.28 0 -2.36 1.12 -2.36 2.42 c0 1.32 1.08 2.42 2.36 2.42 s2.36 -1.1 2.36 -2.42 c0 -1.3 -1.08 -2.42 -2.36 -2.42 z M48.739999999999995 20 l-2.5 0 l0 -4.9 c0 -1.06 -0.9 -2 -1.94 -2 c-1.08 0 -1.96 0.92 -1.96 2 l0 4.9 l-2.5 0 l0 -4.9 c0 -1.08 -0.88 -2 -1.94 -2 s-1.94 0.94 -1.94 2 l0 4.9 l-2.5 0 l0 -9.16 l2.5 0 l0 0.66 c0.62 -0.62 1.28 -0.84 1.94 -0.84 c0.58 0 1.16 0.12 1.72 0.36 c0.52 0.24 1 0.58 1.44 1 c0 0.02 0.02 0.02 0.04 0.04 l0.04 -0.04 c0.42 -0.42 0.9 -0.76 1.44 -1 c0.56 -0.24 1.14 -0.36 1.72 -0.36 c1.18 0 2.3 0.46 3.14 1.28 c0.84 0.86 1.3 1.98 1.3 3.16 l0 4.9 z M53.81999999999999 20 l-2.6 0 l0 -9.16 l2.6 0 l0 9.16 z M52.519999999999996 9.74 c-0.86 0 -1.56 -0.7 -1.56 -1.54 c0 -0.42 0.16 -0.8 0.46 -1.08 c0.3 -0.3 0.68 -0.46 1.1 -0.46 c0.84 0 1.54 0.7 1.54 1.54 s-0.7 1.54 -1.54 1.54 z M65.18 20 l-2.52 0 l0 -4.9 c0 -1.08 -0.86 -1.92 -1.94 -1.92 c-1.04 0 -1.94 0.86 -1.94 1.92 l0 4.9 l-2.5 0 l0 -14.68 l2.5 0 l0 6.18 c0.62 -0.62 1.28 -0.84 1.94 -0.84 c1.2 0 2.32 0.46 3.16 1.28 c0.84 0.86 1.3 1.98 1.3 3.16 l0 4.9 z M71.58 20.22 c-1.16 0 -2.24 -0.42 -3.02 -1.2 c-0.82 -0.78 -1.26 -1.84 -1.26 -2.98 l0 -5.2 l2.52 0 l0 5.2 c0 0.94 0.78 1.7 1.76 1.7 s1.78 -0.76 1.78 -1.7 l0 -5.2 l2.52 0 l0 5.2 c0 1.12 -0.46 2.18 -1.28 2.98 c-0.8 0.78 -1.86 1.2 -3.02 1.2 z M82.7 20.18 c-0.72 0 -1.54 -0.1 -2.26 -0.8 l-0.1 -0.1 l0 0.72 l-2.42 0 l0 -14.68 l2.42 0 l0 6.32 l0.1 -0.08 c0.66 -0.6 1.42 -0.9 2.26 -0.9 c1.28 0 2.48 0.48 3.38 1.38 c0.9 0.92 1.4 2.12 1.4 3.38 s-0.5 2.46 -1.4 3.38 c-0.92 0.9 -2.12 1.38 -3.38 1.38 z M80.34 15.42 c0 1.32 1.08 2.42 2.36 2.42 s2.36 -1.1 2.36 -2.42 c0 -1.3 -1.08 -2.42 -2.36 -2.42 s-2.36 1.12 -2.36 2.42 z"></path></g><g id="SvgjsG2552" featurekey="mlRtrp-0" transform="matrix(0.3953196699042151,0,0,0.3953196699042151,149.5250471921301,78.53312599047072)" fill="#111111"><path d="M16.885 19.08203 c-0.46875 0.19531 -0.94076 0.37102 -1.416 0.52727 s-0.9668 0.29134 -1.4746 0.40527 s-1.0433 0.2002 -1.6064 0.25879 s-1.167 0.087891 -1.8115 0.087891 c-1.3672 0 -2.6253 -0.14648 -3.7744 -0.43945 s-2.1387 -0.73405 -2.9688 -1.3232 s-1.4763 -1.3249 -1.9385 -2.207 s-0.69336 -1.9124 -0.69336 -3.0908 s0.23112 -2.2087 0.69336 -3.0908 s1.1084 -1.6179 1.9385 -2.207 s1.8196 -1.0303 2.9688 -1.3232 s2.4072 -0.43945 3.7744 -0.43945 c0.64453 0 1.2483 0.029297 1.8115 0.087891 s1.0986 0.14485 1.6064 0.25879 s0.99932 0.24902 1.4746 0.40527 s0.94727 0.33203 1.416 0.52734 l0 3.2617 c-0.37109 -0.20183 -0.76172 -0.40202 -1.1719 -0.60059 s-0.86263 -0.3776 -1.3574 -0.5371 s-1.0384 -0.28971 -1.6309 -0.39062 s-1.2598 -0.15137 -2.002 -0.15137 c-1.1394 0 -2.085 0.11719 -2.8369 0.35156 s-1.3525 0.54688 -1.8018 0.9375 s-0.76497 0.83821 -0.94727 1.3428 s-0.27344 1.0271 -0.27344 1.5674 c0 0.35808 0.039063 0.71127 0.11719 1.0596 s0.20833 0.67709 0.39063 0.98633 s0.41992 0.59408 0.71289 0.8545 s0.65755 0.48503 1.0938 0.67383 s0.94564 0.33691 1.5283 0.44434 s1.2549 0.16113 2.0166 0.16113 c0.74219 0 1.4095 -0.047197 2.002 -0.1416 s1.136 -0.21973 1.6309 -0.37598 s0.94727 -0.33366 1.3574 -0.53223 s0.80078 -0.40201 1.1719 -0.61034 l0 3.2617 l0 0 z M35.18163125 20 l0 -13.418 l3.623 0 l0 10.479 l9.7949 0 l0 2.9395 l-13.418 0 z M66.417959375 20 l0 -13.418 l3.623 0 l0 13.418 l-3.623 0 z M103.94359375 19.08203 c-0.46875 0.19531 -0.94076 0.37102 -1.416 0.52727 s-0.9668 0.29134 -1.4746 0.40527 s-1.0433 0.2002 -1.6064 0.25879 s-1.167 0.087891 -1.8115 0.087891 c-1.3672 0 -2.6253 -0.14648 -3.7744 -0.43945 s-2.1387 -0.73405 -2.9688 -1.3232 s-1.4763 -1.3249 -1.9385 -2.207 s-0.69336 -1.9124 -0.69336 -3.0908 s0.23112 -2.2087 0.69336 -3.0908 s1.1084 -1.6179 1.9385 -2.207 s1.8196 -1.0303 2.9688 -1.3232 s2.4072 -0.43945 3.7744 -0.43945 c0.64453 0 1.2483 0.029297 1.8115 0.087891 s1.0986 0.14485 1.6064 0.25879 s0.99932 0.24902 1.4746 0.40527 s0.94727 0.33203 1.416 0.52734 l0 3.2617 c-0.37109 -0.20183 -0.76172 -0.40202 -1.1719 -0.60059 s-0.86263 -0.3776 -1.3574 -0.5371 s-1.0384 -0.28971 -1.6309 -0.39062 s-1.2598 -0.15137 -2.002 -0.15137 c-1.1394 0 -2.085 0.11719 -2.8369 0.35156 s-1.3525 0.54688 -1.8018 0.9375 s-0.76497 0.83821 -0.94727 1.3428 s-0.27344 1.0271 -0.27344 1.5674 c0 0.35808 0.039063 0.71127 0.11719 1.0596 s0.20833 0.67709 0.39063 0.98633 s0.41992 0.59408 0.71289 0.8545 s0.65755 0.48503 1.0938 0.67383 s0.94564 0.33691 1.5283 0.44434 s1.2549 0.16113 2.0166 0.16113 c0.74219 0 1.4095 -0.047197 2.002 -0.1416 s1.136 -0.21973 1.6309 -0.37598 s0.94727 -0.33366 1.3574 -0.53223 s0.80078 -0.40201 1.1719 -0.61034 l0 3.2617 l0 0 z M125.882825 11.6992 l7.4219 -5.1172 l4.8535 0 l-9.0332 6.4355 l9.6387 6.9824 l-5.2832 0 l-7.5977 -5.5762 l0 5.5762 l-3.6426 0 l0 -13.418 l3.6426 0 l0 5.1172 z M154.677730625 20 l0 -3.5156 l3.7012 0 l0 3.5156 l-3.7012 0 z M206.359334375 9.502 l0 10.498 l-3.623 0 l0 -10.498 l-5.6934 0 l0 -2.9199 l15.02 0 l0 2.9199 l-5.7031 0 z M229.3730375 20 l0 -13.418 l13.584 0 l0 2.8613 l-9.8633 0 l0 2.2168 l9.3555 0 l0 2.8613 l-9.3555 0 l0 2.6172 l10 0 l0 2.8613 l-13.721 0 z M273.871203125 10.3613 c-0.25391 -0.1237 -0.58916 -0.26372 -1.0059 -0.41997 s-0.88867 -0.30437 -1.416 -0.44434 s-1.1003 -0.25716 -1.7188 -0.35156 s-1.2532 -0.1416 -1.9043 -0.1416 c-0.52083 0 -0.96517 0.016279 -1.333 0.048828 s-0.67709 0.074863 -0.92774 0.12694 s-0.44922 0.1123 -0.5957 0.18066 s-0.25879 0.13835 -0.33691 0.20996 s-0.12858 0.14322 -0.15137 0.21483 s-0.03418 0.13672 -0.03418 0.19531 c0 0.19531 0.097656 0.36621 0.29297 0.5127 s0.46224 0.27669 0.80078 0.39063 s0.73242 0.22136 1.1816 0.32227 s0.9261 0.20508 1.4307 0.3125 s1.0254 0.22461 1.5625 0.35156 s1.0579 0.27507 1.5625 0.44434 s0.98145 0.36621 1.4307 0.59082 s0.8431 0.48665 1.1816 0.78613 s0.60547 0.64453 0.80078 1.0352 s0.29297 0.83659 0.29297 1.3379 c0 0.64453 -0.11394 1.1979 -0.3418 1.6602 s-0.53223 0.85286 -0.91309 1.1719 s-0.82194 0.57455 -1.3232 0.76661 s-1.0271 0.34018 -1.5771 0.44435 s-1.1067 0.17253 -1.6699 0.20508 s-1.0986 0.048828 -1.6064 0.048828 c-1.3281 0 -2.5569 -0.10905 -3.6865 -0.32715 s-2.1272 -0.4899 -2.9932 -0.81542 l0 -3.2031 c0.89192 0.49479 1.9092 0.88217 3.0518 1.1621 s2.3649 0.41992 3.667 0.41992 c0.76823 0 1.3948 -0.040693 1.8799 -0.12207 s0.86426 -0.18555 1.1377 -0.3125 s0.45898 -0.2653 0.55664 -0.41504 s0.14648 -0.29297 0.14648 -0.42969 c0 -0.21484 -0.097656 -0.40202 -0.29297 -0.56152 s-0.46224 -0.29947 -0.80078 -0.41991 s-0.73242 -0.23111 -1.1816 -0.33202 s-0.9261 -0.20182 -1.4307 -0.30272 s-1.0237 -0.20996 -1.5576 -0.32715 s-1.053 -0.25554 -1.5576 -0.41504 s-0.98145 -0.34505 -1.4307 -0.55664 s-0.8431 -0.46225 -1.1816 -0.75196 s-0.60547 -0.625 -0.80078 -1.0059 s-0.29297 -0.82194 -0.29297 -1.3232 c0 -0.59245 0.10417 -1.1035 0.3125 -1.5332 s0.4899 -0.7959 0.84472 -1.0986 s0.76497 -0.54851 1.2305 -0.7373 s0.95541 -0.33528 1.4697 -0.43945 s1.0352 -0.17578 1.5625 -0.21484 s1.0286 -0.058594 1.5039 -0.058594 c0.52083 0 1.0563 0.026045 1.6064 0.078125 s1.0921 0.12532 1.626 0.21973 s1.0498 0.20346 1.5479 0.32716 s0.95866 0.25391 1.3818 0.39063 l0 3.1055 z M300.84956875 9.502 l0 10.498 l-3.623 0 l0 -10.498 l-5.6934 0 l0 -2.9199 l15.02 0 l0 2.9199 l-5.7031 0 z M322.271480625 20 l0 -3.5156 l3.7012 0 l0 3.5156 l-3.7012 0 z M382.868984375 13.2812 c0 0.85938 -0.094385 1.6228 -0.28318 2.29 s-0.4541 1.2483 -0.7959 1.7432 s-0.75195 0.91472 -1.2305 1.2598 s-1.0107 0.62174 -1.5967 0.83007 s-1.2175 0.3597 -1.8945 0.4541 s-1.3835 0.1416 -2.1191 0.1416 l-8.5156 0 l0 -13.418 l8.4961 0 c0.73567 0 1.4421 0.047197 2.1191 0.1416 s1.3103 0.24577 1.8994 0.4541 s1.1247 0.4834 1.6064 0.8252 s0.89355 0.76172 1.2354 1.2598 s0.6071 1.0791 0.7959 1.7432 s0.2832 1.4226 0.2832 2.2754 z M379.216984375 13.2812 c0 -0.64453 -0.083008 -1.2044 -0.24902 -1.6797 s-0.43294 -0.86752 -0.80078 -1.1768 s-0.84799 -0.54037 -1.4404 -0.69337 s-1.3151 -0.22949 -2.168 -0.22949 l-4.502 0 l0 7.5781 l4.502 0 c0.85286 0 1.5755 -0.076494 2.168 -0.22949 s1.0726 -0.38737 1.4404 -0.70313 s0.63477 -0.71126 0.80078 -1.1865 s0.24902 -1.0352 0.24902 -1.6797 z M418.45128125 13.300799999999999 c0 1.1523 -0.21159 2.1696 -0.63477 3.0518 s-1.0286 1.6194 -1.8164 2.2119 s-1.7432 1.04 -2.8662 1.3428 s-2.3845 0.4541 -3.7842 0.4541 s-2.6644 -0.15137 -3.7939 -0.4541 s-2.0915 -0.75032 -2.8857 -1.3428 s-1.4063 -1.3298 -1.8359 -2.2119 s-0.64453 -1.8994 -0.64453 -3.0518 s0.21484 -2.1696 0.64453 -3.0518 s1.0417 -1.6194 1.8359 -2.2119 s1.7562 -1.04 2.8857 -1.3428 s2.3942 -0.4541 3.7939 -0.4541 s2.6611 0.15137 3.7842 0.4541 s2.0784 0.75032 2.8662 1.3428 s1.3933 1.3298 1.8164 2.2119 s0.63477 1.8994 0.63477 3.0518 z M414.78928125 13.300799999999999 c0 -0.5013 -0.079756 -1.001 -0.23926 -1.499 s-0.44271 -0.94563 -0.84961 -1.3428 s-0.96191 -0.7194 -1.665 -0.9668 s-1.5983 -0.37109 -2.6855 -0.37109 c-0.72917 0 -1.3704 0.056963 -1.9238 0.1709 s-1.0319 0.27182 -1.4355 0.47364 s-0.74219 0.43783 -1.0156 0.70802 s-0.49153 0.5599 -0.6543 0.86915 s-0.27832 0.63151 -0.34668 0.9668 s-0.10254 0.66568 -0.10254 0.99121 c0 0.33203 0.03418 0.66731 0.10254 1.0059 s0.18392 0.66244 0.34668 0.97169 s0.38086 0.59733 0.6543 0.86426 s0.61198 0.49967 1.0156 0.69823 s0.88216 0.35481 1.4355 0.46875 s1.1946 0.1709 1.9238 0.1709 c1.0872 0 1.9824 -0.1237 2.6855 -0.37109 s1.2581 -0.56966 1.665 -0.9668 s0.69011 -0.84473 0.84961 -1.3428 s0.23926 -0.99775 0.23926 -1.499 z M449.3453125 20 l-9.0527 -9.2188 l0 9.2188 l-3.623 0 l0 -13.418 l3.9355 0 l9.0625 9.2578 l0 -9.2578 l3.6035 0 l0 13.418 l-3.9258 0 z M472.3886625 20 l0 -13.418 l13.584 0 l0 2.8613 l-9.8633 0 l0 2.2168 l9.3555 0 l0 2.8613 l-9.3555 0 l0 2.6172 l10 0 l0 2.8613 l-13.721 0 z M503.419918125 20 l0 -3.5156 l3.7012 0 l0 3.5156 l-3.7012 0 z"></path></g></svg>